<svg id="Capa_1" enable-background="new 0 0 512 512" height="512" viewBox="0 0 512 512" width="512" xmlns="http://www.w3.org/2000/svg" xmlns:xlink="http://www.w3.org/1999/xlink"><linearGradient id="SVGID_1_" gradientUnits="userSpaceOnUse" x1="298.997" x2="298.997" y1="381.006" y2="45"><stop offset="0" stop-color="#addcff"/><stop offset=".5028" stop-color="#eaf6ff"/><stop offset="1" stop-color="#eaf6ff"/></linearGradient><linearGradient id="SVGID_2_" gradientUnits="userSpaceOnUse" x1="256" x2="256" y1="512" y2="0"><stop offset="0" stop-color="#5558ff"/><stop offset="1" stop-color="#00c0ff"/></linearGradient><g><g><g><path d="m332 45c-74.443 0-135 60.557-135 135s60.557 135 135 135 135-60.557 135-135-60.557-135-135-135zm-127.222 241.011-69.39 69.39c-5.859 5.859-5.859 15.352 0 21.211s15.351 5.859 21.211 0l69.39-69.39c5.859-5.859 5.859-15.352 0-21.211s-15.351-5.86-21.211 0z" fill="url(#SVGID_1_)"/></g></g><g><g><path d="m302 180c8.401 0 15-6.601 15-15v-15c0-8.401-6.599-15-15-15s-15 6.599-15 15v15c0 8.399 6.599 15 15 15zm60 0c8.401 0 15-6.601 15-15v-15c0-8.401-6.599-15-15-15s-15 6.599-15 15v15c0 8.399 6.599 15 15 15zm-30-180c-99.3 0-180 80.7-180 180s80.7 180 180 180 180-80.7 180-180-80.7-180-180-180zm0 300c-66.301 0-120-53.701-120-120 0-66.301 53.699-120 120-120s120 53.699 120 120c0 66.299-53.699 120-120 120zm-42.299-85.501c-6 5.7-6 15.3 0 21 5.7 6 15.299 6 20.999 0 11.4-11.4 31.201-11.4 42.602 0 2.698 3.002 6.598 4.501 10.498 4.501s7.8-1.5 10.5-4.501c6-5.7 6-15.3 0-21-22.501-22.799-62.099-22.799-84.599 0zm-154.312 119.691c-5.859-5.859-15.352-5.859-21.211 0l-101.026 101.023c-17.534 17.534-17.534 46.069-.015 63.633.015 0 .015 0 .015.015 17.55 17.52 46.124 17.524 63.633-.015l101.025-101.023c5.859-5.859 5.859-15.352 0-21.211z" fill="url(#SVGID_2_)"/></g></g></g></svg>